<svg width="23" height="23" viewBox="0 0 23 23" fill="none" xmlns="http://www.w3.org/2000/svg">
<path fill-rule="evenodd" clip-rule="evenodd" d="M6.57159 4.92899L11.5006 0L16.4284 4.92899L11.5006 9.85797L6.57159 4.92899ZM9.85797 4.92899L11.5006 3.28754L13.1432 4.93015L11.5006 6.57159L9.85797 4.92899Z" fill="white"/>
<path fill-rule="evenodd" clip-rule="evenodd" d="M0 11.5006L4.92899 6.57162L9.85797 11.5006L4.92899 16.4284L0 11.5006ZM3.28638 11.5006L4.92899 9.858L6.57159 11.5006L4.92899 13.1432L3.28754 11.5006H3.28638Z" fill="white"/>
<path fill-rule="evenodd" clip-rule="evenodd" d="M13.1432 11.5006L18.0722 16.4284L23 11.5006L18.0722 6.57162L13.1432 11.5006ZM18.0722 9.858L16.4296 11.5006L18.0722 13.1432L19.7136 11.5006L18.071 9.858H18.0722Z" fill="white"/>
<path fill-rule="evenodd" clip-rule="evenodd" d="M6.57159 18.0722L11.5006 13.1432L16.4284 18.0722L11.5006 23L6.57159 18.0722ZM9.85797 18.0722L11.5006 16.4296L13.1432 18.0722L11.5006 19.7136L9.85797 18.071V18.0722Z" fill="white"/>
</svg>
